<svg class="diagram-root" style="background: #f5f6f6" xmlns="http://www.w3.org/2000/svg" xmlns:xlink="http://www.w3.org/1999/xlink"><style>.diagram-root { font-family: "Helvetica Neue", sans-serif; font-size: 12px; } .t { overflow: visible; } .t-bg { y: 40; fill: #fff;   } .th { fill: #005aa0;   } .tht { fill: #fff; font-size: 14px;  } .tf { fill: #323c46; overflow: visible; } .tf.pk { fill: #005aa0; font-weight: bold; } .tf.fk { font-weight: bold; } .ty { fill: #adb1b5; font-weight: normal; text-anchor: end; } .r { fill: transparent; stroke: #c3c3c3; stroke-width: 1; } .l { stroke: 1; } .i { fill: #c2c7ce; stroke: #c2c7ce; } .i.ix { fill: #afb3b6; stroke: #000; } .fa { fill: transparent; overflow: visible; } .fa .bg.hover { fill: #f7f7f7; } .c { cy: 12; r: 4; stroke: #d2d2dc; fill: #d2d2dc; } .hr { fill: transparent; stroke: #323c46; stroke-opacity: 0.035; stroke-width: 13; } .dc { stroke: #fa5a3c; fill: #fa5a3c; } .x { stroke: white; stroke-width: 1; } .hl .th { fill: #1b9bff; } .hl .tht {  } .fhl .bg { fill: #e7f4ff; } .fhls .bg {  } .r.hl { stroke: #1b9bff; } .dim { opacity: 0.25; }</style><g class="drawing-wrapper" transform="translate(-59, -14) scale(1,1)"><g class="rs"><path d="M 659 585 m -1, 0 a 1,1 0 1,0 2,0 a 1,1 0 1,0 -2,0 M 659 585 m -0.5, 0 a 0.5,0.5 0 1,0 1,0 a 0.5,0.5 0 1,0 -1,0  M659 585 L659 585 647 585 M 659 591 m -1, 0 a 1,1 0 1,0 2,0 a 1,1 0 1,0 -2,0 M 659 591 m -0.5, 0 a 0.5,0.5 0 1,0 1,0 a 0.5,0.5 0 1,0 -1,0  M659 591 L659 591 652 585 659 579 M 659 579 m -1, 0 a 1,1 0 1,0 2,0 a 1,1 0 1,0 -2,0 M 659 579 m -0.5, 0 a 0.5,0.5 0 1,0 1,0 a 0.5,0.5 0 1,0 -1,0  M647 585 Q 617.1 585, 587.2 584 T 527.4 583 M 515.4 583 m -1, 0 a 1,1 0 1,0 2,0 a 1,1 0 1,0 -2,0 M 515.4 583 m -0.5, 0 a 0.5,0.5 0 1,0 1,0 a 0.5,0.5 0 1,0 -1,0  M515.4 583 L515.4 583 527.4 583 M521.4 589 L521.4 589 521.4 577" id="h2799643810" class="r"></path><path d="M 826.4 610 m -1, 0 a 1,1 0 1,0 2,0 a 1,1 0 1,0 -2,0 M 826.4 610 m -0.5, 0 a 0.5,0.5 0 1,0 1,0 a 0.5,0.5 0 1,0 -1,0  M826.4 610 L826.4 610 838.4 610 M 826.4 616 m -1, 0 a 1,1 0 1,0 2,0 a 1,1 0 1,0 -2,0 M 826.4 616 m -0.5, 0 a 0.5,0.5 0 1,0 1,0 a 0.5,0.5 0 1,0 -1,0  M826.4 616 L826.4 616 833.4 610 826.4 604 M 826.4 604 m -1, 0 a 1,1 0 1,0 2,0 a 1,1 0 1,0 -2,0 M 826.4 604 m -0.5, 0 a 0.5,0.5 0 1,0 1,0 a 0.5,0.5 0 1,0 -1,0  M838.4 610 Q 860.3 610, 882.2 477 T 926 344 M 938 344 m -1, 0 a 1,1 0 1,0 2,0 a 1,1 0 1,0 -2,0 M 938 344 m -0.5, 0 a 0.5,0.5 0 1,0 1,0 a 0.5,0.5 0 1,0 -1,0  M938 344 L938 344 926 344 M932 350 L932 350 932 338" id="h3162857966" class="r"></path><path d="M 336 264 m -1, 0 a 1,1 0 1,0 2,0 a 1,1 0 1,0 -2,0 M 336 264 m -0.5, 0 a 0.5,0.5 0 1,0 1,0 a 0.5,0.5 0 1,0 -1,0  M336 264 L336 264 324 264 M 336 270 m -1, 0 a 1,1 0 1,0 2,0 a 1,1 0 1,0 -2,0 M 336 270 m -0.5, 0 a 0.5,0.5 0 1,0 1,0 a 0.5,0.5 0 1,0 -1,0  M336 270 L336 270 329 264 336 258 M 336 258 m -1, 0 a 1,1 0 1,0 2,0 a 1,1 0 1,0 -2,0 M 336 258 m -0.5, 0 a 0.5,0.5 0 1,0 1,0 a 0.5,0.5 0 1,0 -1,0  M324 264 Q 303.43 264, 282.86 192.5 T 241.71 121 M 229.71 121 m -1, 0 a 1,1 0 1,0 2,0 a 1,1 0 1,0 -2,0 M 229.71 121 m -0.5, 0 a 0.5,0.5 0 1,0 1,0 a 0.5,0.5 0 1,0 -1,0  M229.71 121 L229.71 121 241.71 121 M235.71 127 L235.71 127 235.71 115" id="h1537058300" class="r"></path><path d="M 515.4 558 m -1, 0 a 1,1 0 1,0 2,0 a 1,1 0 1,0 -2,0 M 515.4 558 m -0.5, 0 a 0.5,0.5 0 1,0 1,0 a 0.5,0.5 0 1,0 -1,0  M515.4 558 L515.4 558 527.4 558 M 515.4 564 m -1, 0 a 1,1 0 1,0 2,0 a 1,1 0 1,0 -2,0 M 515.4 564 m -0.5, 0 a 0.5,0.5 0 1,0 1,0 a 0.5,0.5 0 1,0 -1,0  M515.4 564 L515.4 564 522.4 558 515.4 552 M 515.4 552 m -1, 0 a 1,1 0 1,0 2,0 a 1,1 0 1,0 -2,0 M 515.4 552 m -0.5, 0 a 0.5,0.5 0 1,0 1,0 a 0.5,0.5 0 1,0 -1,0  M527.4 558 C 577.4 558, 577.8019999999999 239, 526.73 239 M 514.73 239 m -1, 0 a 1,1 0 1,0 2,0 a 1,1 0 1,0 -2,0 M 514.73 239 m -0.5, 0 a 0.5,0.5 0 1,0 1,0 a 0.5,0.5 0 1,0 -1,0  M514.73 239 L514.73 239 526.73 239 M520.73 245 L520.73 245 520.73 233" id="h1139284389" class="r"></path><path d="M 938 319 m -1, 0 a 1,1 0 1,0 2,0 a 1,1 0 1,0 -2,0 M 938 319 m -0.5, 0 a 0.5,0.5 0 1,0 1,0 a 0.5,0.5 0 1,0 -1,0  M938 319 L938 319 926 319 M 938 325 m -1, 0 a 1,1 0 1,0 2,0 a 1,1 0 1,0 -2,0 M 938 325 m -0.5, 0 a 0.5,0.5 0 1,0 1,0 a 0.5,0.5 0 1,0 -1,0  M938 325 L938 325 931 319 938 313 M 938 313 m -1, 0 a 1,1 0 1,0 2,0 a 1,1 0 1,0 -2,0 M 938 313 m -0.5, 0 a 0.5,0.5 0 1,0 1,0 a 0.5,0.5 0 1,0 -1,0  M926 319 Q 826.19 319, 726.37 279 T 526.73 239 M 514.73 239 m -1, 0 a 1,1 0 1,0 2,0 a 1,1 0 1,0 -2,0 M 514.73 239 m -0.5, 0 a 0.5,0.5 0 1,0 1,0 a 0.5,0.5 0 1,0 -1,0  M514.73 239 L514.73 239 526.73 239 M520.73 245 L520.73 245 520.73 233" id="h554095726" class="r"></path><path d="M 682.39 101 m -1, 0 a 1,1 0 1,0 2,0 a 1,1 0 1,0 -2,0 M 682.39 101 m -0.5, 0 a 0.5,0.5 0 1,0 1,0 a 0.5,0.5 0 1,0 -1,0  M682.39 101 L682.39 101 694.39 101 M 682.39 107 m -1, 0 a 1,1 0 1,0 2,0 a 1,1 0 1,0 -2,0 M 682.39 107 m -0.5, 0 a 0.5,0.5 0 1,0 1,0 a 0.5,0.5 0 1,0 -1,0  M682.39 107 L682.39 107 689.39 101 682.39 95 M 682.39 95 m -1, 0 a 1,1 0 1,0 2,0 a 1,1 0 1,0 -2,0 M 682.39 95 m -0.5, 0 a 0.5,0.5 0 1,0 1,0 a 0.5,0.5 0 1,0 -1,0  M694.39 101 C 744.39 101, 844.986 239, 526.73 239 M 514.73 239 m -1, 0 a 1,1 0 1,0 2,0 a 1,1 0 1,0 -2,0 M 514.73 239 m -0.5, 0 a 0.5,0.5 0 1,0 1,0 a 0.5,0.5 0 1,0 -1,0  M514.73 239 L514.73 239 526.73 239 M520.73 245 L520.73 245 520.73 233" id="h3177548053" class="r"></path><path d="M 525 126 m -1, 0 a 1,1 0 1,0 2,0 a 1,1 0 1,0 -2,0 M 525 126 m -0.5, 0 a 0.5,0.5 0 1,0 1,0 a 0.5,0.5 0 1,0 -1,0  M525 126 L525 126 513 126 M 525 132 m -1, 0 a 1,1 0 1,0 2,0 a 1,1 0 1,0 -2,0 M 525 132 m -0.5, 0 a 0.5,0.5 0 1,0 1,0 a 0.5,0.5 0 1,0 -1,0  M525 132 L525 132 518 126 525 120 M 525 120 m -1, 0 a 1,1 0 1,0 2,0 a 1,1 0 1,0 -2,0 M 525 120 m -0.5, 0 a 0.5,0.5 0 1,0 1,0 a 0.5,0.5 0 1,0 -1,0  M513 126 Q 445.18 126, 377.36 136 T 241.71 146 M 229.71 146 m -1, 0 a 1,1 0 1,0 2,0 a 1,1 0 1,0 -2,0 M 229.71 146 m -0.5, 0 a 0.5,0.5 0 1,0 1,0 a 0.5,0.5 0 1,0 -1,0  M229.71 146 L229.71 146 241.71 146 M235.71 152 L235.71 152 235.71 140" id="h3041436772" class="r"></path></g><g class="hrs"></g><g class="ts"><svg width="167.4" height="100" x="659" y="528" id="h1357546326" class="t"><rect height="40" width="167.4" class="th"></rect><text x="13" y="25" class="tht">dept</text><rect height="60" width="167.4" class="t-bg" y="40"></rect><text x="13" y="61" class="tf fk">dept_no<tspan x="154.4" class="ty">varchar(6)?</tspan></text><text x="13" y="86" class="tf fk">dept_name<tspan x="154.4" class="ty">varchar(24)</tspan></text></svg><svg width="148.71" height="100" x="81" y="64" id="h311790747" class="t"><rect height="40" width="148.71" class="th"></rect><text x="13" y="25" class="tht">titles</text><rect height="60" width="148.71" class="t-bg" y="40"></rect><text x="13" y="61" class="tf fk">title_id<tspan x="135.71" class="ty">varchar(6)?</tspan></text><text x="13" y="86" class="tf fk">title<tspan x="135.71" class="ty">varchar(24)</tspan></text></svg><svg width="178.73" height="225" x="336" y="182" id="h1639608377" class="t"><rect height="40" width="178.73" class="th"></rect><text x="13" y="25" class="tht">employees</text><rect height="185" width="178.73" class="t-bg" y="40"></rect><text x="13" y="61" class="tf fk">emp_no<tspan x="165.73" class="ty">varchar(6)?</tspan></text><text x="13" y="86" class="tf fk">emp_title_id<tspan x="165.73" class="ty">varchar(6)?</tspan></text><text x="13" y="111" class="tf">birthdate<tspan x="165.73" class="ty">date</tspan></text><text x="13" y="136" class="tf">first_name<tspan x="165.73" class="ty">varchar(35)</tspan></text><text x="13" y="161" class="tf">last_name<tspan x="165.73" class="ty">varchar(35)</tspan></text><text x="13" y="186" class="tf">sex<tspan x="165.73" class="ty">varchar(1)</tspan></text><text x="13" y="211" class="tf">hire_date<tspan x="165.73" class="ty">date</tspan></text></svg><svg width="157.4" height="100" x="358" y="501" id="h1090417462" class="t"><rect height="40" width="157.4" class="th"></rect><text x="13" y="25" class="tht">dept_emp</text><rect height="60" width="157.4" class="t-bg" y="40"></rect><text x="13" y="61" class="tf fk">emp_no<tspan x="144.4" class="ty">varchar(6)?</tspan></text><text x="13" y="86" class="tf fk">dept_no<tspan x="144.4" class="ty">varchar(6)?</tspan></text></svg><svg width="157.4" height="100" x="938" y="262" id="h1991484534" class="t"><rect height="40" width="157.4" class="th"></rect><text x="13" y="25" class="tht">dept_man</text><rect height="60" width="157.4" class="t-bg" y="40"></rect><text x="13" y="61" class="tf fk">emp_no<tspan x="144.4" class="ty">varchar(6)?</tspan></text><text x="13" y="86" class="tf fk">dept_no<tspan x="144.4" class="ty">varchar(6)?</tspan></text></svg><svg width="157.39" height="100" x="525" y="44" id="h2472833127" class="t"><rect height="40" width="157.39" class="th"></rect><text x="13" y="25" class="tht">salaries</text><rect height="60" width="157.39" class="t-bg" y="40"></rect><text x="13" y="61" class="tf fk">emp_no<tspan x="144.39" class="ty">varchar(6)?</tspan></text><text x="13" y="86" class="tf fk">salary<tspan x="144.39" class="ty">float</tspan></text></svg></g></g><text class="qdbd-link" x="10" y="20">www.quickdatabasediagrams.com</text></svg>